<?xml version="1.0" standalone="no"?>
<!DOCTYPE svg PUBLIC "-//W3C//DTD SVG 20010904//EN"
 "http://www.w3.org/TR/2001/REC-SVG-20010904/DTD/svg10.dtd">
<svg version="1.0" xmlns="http://www.w3.org/2000/svg"
 width="147.000000pt" height="93.000000pt" viewBox="0 0 147.000000 93.000000"
 preserveAspectRatio="xMidYMid meet">

<g transform="translate(0.000000,93.000000) scale(0.100000,-0.100000)"
fill="#000000" stroke="none">
<path d="M898 773 c7 -3 16 -2 19 1 4 3 -2 6 -13 5 -11 0 -14 -3 -6 -6z"/>
<path d="M665 750 l-260 -5 0 -220 0 -220 328 -3 c305 -2 328 -1 335 15 4 10
7 110 7 223 l0 205 -75 5 c-41 3 -191 3 -335 0z m273 -348 c2 -7 -1 -12 -8
-12 -6 0 -8 5 -5 10 3 6 1 10 -4 10 -6 0 -11 -5 -11 -12 0 -6 -3 -9 -6 -5 -9
9 6 29 19 24 6 -2 13 -9 15 -15z m45 -9 c-7 -2 -19 -2 -25 0 -7 3 -2 5 12 5
14 0 19 -2 13 -5z m-343 -57 c0 -3 -4 -8 -10 -11 -5 -3 -10 -1 -10 4 0 6 5 11
10 11 6 0 10 -2 10 -4z m55 -6 c3 -5 1 -10 -4 -10 -6 0 -11 5 -11 10 0 6 2 10
4 10 3 0 8 -4 11 -10z m65 -6 c0 -2 -9 -4 -20 -4 -11 0 -20 4 -20 9 0 5 9 7
20 4 11 -3 20 -7 20 -9z m35 6 c3 -5 -1 -10 -10 -10 -9 0 -13 5 -10 10 3 6 8
10 10 10 2 0 7 -4 10 -10z m254 -6 c2 -2 -44 -4 -103 -4 -59 0 -105 4 -102 9
5 8 196 4 205 -5z"/>
<path d="M1217 550 c-13 -13 -15 -20 -7 -25 15 -9 33 8 28 27 -2 13 -6 12 -21
-2z"/>
<path d="M196 476 c25 -19 9 -34 -17 -18 -19 12 -20 11 -17 -15 4 -34 36 -44
55 -17 7 10 13 21 13 25 0 12 -30 39 -43 39 -6 0 -2 -6 9 -14z"/>
<path d="M1315 438 c11 -6 28 -20 37 -32 14 -17 21 -19 34 -10 10 6 20 17 22
25 3 10 0 10 -13 -3 -17 -16 -20 -16 -47 7 -16 14 -35 25 -41 25 -7 0 -3 -6 8
-12z"/>
<path d="M108 392 c-39 -8 -29 -92 10 -92 9 0 26 7 36 15 25 19 60 19 76 0 25
-30 70 -4 70 40 0 37 -31 49 -74 28 -33 -15 -39 -15 -68 -2 -18 8 -41 13 -50
11z m37 -21 c3 -5 -8 -9 -24 -9 -17 1 -28 5 -25 10 7 11 41 10 49 -1z m140 -1
c7 -12 -2 -12 -30 0 -19 8 -19 9 2 9 12 1 25 -3 28 -9z m-78 -16 c-3 -3 -12
-4 -19 -1 -8 3 -5 6 6 6 11 1 17 -2 13 -5z"/>
<path d="M1330 340 c0 -5 -11 -17 -25 -26 -21 -14 -31 -15 -53 -5 -25 11 -26
10 -8 -4 27 -20 52 -19 76 5 19 19 27 40 15 40 -3 0 -5 -4 -5 -10z"/>
<path d="M163 274 c-3 -8 0 -27 6 -41 11 -23 13 -24 33 -11 29 19 31 30 13 53
-14 18 -14 18 -9 1 5 -14 3 -17 -12 -14 -10 2 -18 10 -16 16 3 17 -8 15 -15
-4z"/>
<path d="M1245 231 c-6 -5 -23 -11 -40 -14 l-30 -4 31 -2 c18 0 37 6 44 14 14
16 10 21 -5 6z"/>
</g>
</svg>
