<?xml version="1.0" standalone="no"?>
<!DOCTYPE svg PUBLIC "-//W3C//DTD SVG 20010904//EN"
 "http://www.w3.org/TR/2001/REC-SVG-20010904/DTD/svg10.dtd">
<svg version="1.0" xmlns="http://www.w3.org/2000/svg"
 width="200.000000pt" height="140.000000pt" viewBox="0 0 200.000000 140.000000"
 preserveAspectRatio="xMidYMid meet">
<metadata>
Created by potrace 1.15, written by Peter Selinger 2001-2017
</metadata>
<g transform="translate(0.000000,140.000000) scale(0.100000,-0.100000)"
fill="#000000" stroke="none">
<path d="M0 700 l0 -700 1000 0 1000 0 0 700 0 700 -1000 0 -1000 0 0 -700z
m1730 85 l0 -465 -735 0 -735 0 0 465 0 465 735 0 735 0 0 -465z"/>
<path d="M925 1070 l-260 -5 0 -220 0 -220 328 -3 c305 -2 328 -1 335 15 4 10
7 110 7 223 l0 205 -75 5 c-41 3 -191 3 -335 0z"/>
<path d="M368 712 c-39 -8 -29 -92 10 -92 9 0 26 7 36 15 25 19 60 19 76 0 25
-30 70 -4 70 40 0 37 -31 49 -74 28 -33 -15 -39 -15 -68 -2 -18 8 -41 13 -50
11z"/>
</g>
</svg>
